<svg xmlns="http://www.w3.org/2000/svg" xmlns:xlink="http://www.w3.org/1999/xlink" width="28" height="28" version="1.1" viewBox="0 0 28 28"><title>Common File Text Info</title><g fill="none" fill-rule="evenodd" stroke="none" stroke-linecap="round" stroke-linejoin="round" stroke-width="1"><g stroke="#DB0032" stroke-width="1.144"><g transform="translate(-310.000000, -748.000000) translate(311.000000, 749.000000)"><line id="Path" x1="4.597" x2="15.461" y1="9.171" y2="9.171"/><line id="Path" x1="4.597" x2="11.459" y1="12.602" y2="12.602"/><line id="Path" x1="4.597" x2="12.602" y1="5.741" y2="5.741"/><line id="Path" x1="4.597" x2="9.171" y1="16.033" y2="16.033"/><line id="Path" x1="4.597" x2="9.171" y1="19.464" y2="19.464"/><path id="Path" d="M11.4585445,26.3249196 L1.16643866,26.3249196 C0.534863873,26.3249196 0.0228713463,25.8129271 0.0228713463,25.1813523 L0.0228713463,1.16643866 C0.0228713463,0.534863873 0.534863873,0.0228713463 1.16643866,0.0228713463 L16.367879,0.0228713463 C16.6711471,0.0228713463 16.9619705,0.143461235 17.1763811,0.35793657 L21.4155851,4.59714061 C21.6300605,4.81155117 21.7506503,5.10237458 21.7506503,5.4056427 L21.7506503,9.17140987"/><path id="Path" d="M12.6021118,19.4635157 C12.6021118,23.2529644 15.674067,26.3249196 19.4635157,26.3249196 C23.2529644,26.3249196 26.3249196,23.2529644 26.3249196,19.4635157 C26.3249196,15.674067 23.2529644,12.6021118 19.4635157,12.6021118 C15.674067,12.6021118 12.6021118,15.674067 12.6021118,19.4635157 Z"/><path id="Path" d="M19.4635157,22.8942177 L19.4635157,18.8917321 C19.4635157,18.5759447 19.2075195,18.3199484 18.8917321,18.3199484 L17.7481647,18.3199484"/><path id="Path" d="M18.6058402,15.4610301 C18.7637339,15.4610301 18.8917321,15.5890282 18.8917321,15.7469219 C18.8917321,15.9048156 18.7637339,16.0328138 18.6058402,16.0328138 C18.4479465,16.0328138 18.3199484,15.9048156 18.3199484,15.7469219 C18.3199484,15.5890282 18.4479465,15.4610301 18.6058402,15.4610301"/><line id="Path" x1="17.748" x2="21.179" y1="22.894" y2="22.894"/></g></g></g></svg>